<?xml version="1.0" encoding="utf-8"?>
<!-- Generator: Adobe Illustrator 15.0.0, SVG Export Plug-In . SVG Version: 6.00 Build 0)  -->
<!DOCTYPE svg PUBLIC "-//W3C//DTD SVG 1.1//EN" "http://www.w3.org/Graphics/SVG/1.1/DTD/svg11.dtd">
<svg version="1.1" id="Layer_1" xmlns="http://www.w3.org/2000/svg" xmlns:xlink="http://www.w3.org/1999/xlink" x="0px" y="0px"
	 width="80px" height="80px" viewBox="0 0 80 80" enable-background="new 0 0 80 80" xml:space="preserve">
<path d="M0,0v80h80V0H0z M67.982,44.877H56.984v29.43H45.781v-29.43H38V34.282h7.781c0,0,0-4.342,0-9.05
	c0-7.111,4.597-13.642,15.188-13.642c4.288,0,7.459,0.411,7.459,0.411l-0.25,9.895c0,0-3.234-0.031-6.763-0.031
	c-3.819,0-4.432,1.76-4.432,4.682c0,0.361,0,0.489,0,0.496c0,0.818,0,2.808,0,7.241h11.498L67.982,44.877z"/>
</svg>
