<?xml version="1.0" encoding="utf-8"?>
<!-- Generator: Adobe Illustrator 15.0.0, SVG Export Plug-In . SVG Version: 6.00 Build 0)  -->
<!DOCTYPE svg PUBLIC "-//W3C//DTD SVG 1.1//EN" "http://www.w3.org/Graphics/SVG/1.1/DTD/svg11.dtd">
<svg version="1.1" id="Layer_1" xmlns="http://www.w3.org/2000/svg" xmlns:xlink="http://www.w3.org/1999/xlink" x="0px" y="0px"
	 width="80px" height="80px" viewBox="0 0 80 80" enable-background="new 0 0 80 80" xml:space="preserve">
<path d="M0,0v80h80V39.592V0H0z M23.882,68.243H11.981V29.968h11.901V68.243z M17.933,24.735c-3.813,0-6.896-3.091-6.896-6.9
	c0-3.805,3.083-6.896,6.896-6.896c3.803,0,6.894,3.091,6.894,6.896C24.827,21.644,21.736,24.735,17.933,24.735z M68.437,68.243
	H56.554V49.631c0-4.441-0.086-10.15-6.183-10.15c-6.19,0-7.136,4.836-7.136,9.829v18.934H31.344V29.968h11.412v5.228h0.163
	c1.588-3.008,5.469-6.182,11.257-6.182c12.037,0,14.261,7.925,14.261,18.235V68.243z"/>
</svg>
